<svg xmlns="http://www.w3.org/2000/svg" xmlns:xlink="http://www.w3.org/1999/xlink" preserveAspectRatio="xMidYMid" width="70.43" height="46.954" viewBox="0 0 72 48">
  <defs>
    <style>
      .cls-1 {
        fill: #f4f4f4;
        stroke: #7f7e7e;
        stroke-linejoin: round;
        stroke-width: 2px;
        fill-opacity: 0;
      }

      .cls-1, .cls-2 {
        filter: url(#drop-shadow-1);
        fill-rule: evenodd;
      }

      .cls-2 {
        fill: #7f7e7e;
      }
    </style>

    <filter id="drop-shadow-1" filterUnits="userSpaceOnUse">
      <feOffset dy="1" in="SourceAlpha"/>
      <feGaussianBlur result="dropBlur"/>
      <feFlood flood-color="#fff"/>
      <feComposite operator="in" in2="dropBlur" result="dropShadowComp"/>
      <feComposite in="SourceGraphic" result="shadowed"/>
    </filter>
  </defs>
  <g>
    <g style="fill: #f4f4f4; filter: url(#drop-shadow-1)">
      <path d="M23.500,1.500 L48.500,1.500 C60.926,1.500 71.000,11.573 71.000,24.000 C71.000,36.426 60.926,46.500 48.500,46.500 L23.500,46.500 C11.073,46.500 1.000,36.426 1.000,24.000 C1.000,11.573 11.073,1.500 23.500,1.500 Z" id="path-1" style="stroke: inherit; filter: none; fill: inherit" class="cls-1"/>
    </g>
    <use xlink:href="#path-1" style="stroke: #7f7e7e; filter: none; fill: none"/>
    <path d="M48.198,18.137 L45.165,27.336 C45.051,27.698 44.715,27.945 44.334,27.945 L30.873,27.945 L31.325,29.847 C31.410,29.839 31.493,29.821 31.581,29.821 C31.809,29.821 32.026,29.860 32.237,29.915 L42.839,29.915 C42.845,29.915 42.850,29.919 42.856,29.919 C43.071,29.862 43.293,29.821 43.526,29.821 C44.967,29.821 46.139,30.994 46.139,32.434 C46.139,33.875 44.967,35.047 43.526,35.047 C42.085,35.047 40.913,33.875 40.913,32.434 C40.913,32.242 40.937,32.056 40.977,31.876 L34.130,31.876 C34.170,32.056 34.193,32.242 34.193,32.434 C34.193,33.875 33.021,35.047 31.581,35.047 C30.139,35.047 28.968,33.875 28.968,32.434 C28.968,31.749 29.238,31.130 29.671,30.664 L25.518,12.966 L22.371,12.966 C21.889,12.966 21.500,12.389 21.500,11.908 C21.500,11.427 21.889,10.943 22.371,10.943 L26.214,10.943 C26.621,10.943 26.974,11.507 27.064,11.903 L28.275,17.004 L47.368,17.004 C47.645,17.004 47.906,17.137 48.070,17.360 C48.234,17.584 48.282,17.873 48.198,18.137 ZM43.526,33.306 C44.007,33.306 44.397,32.915 44.397,32.434 C44.397,31.954 44.007,31.563 43.526,31.563 C43.512,31.563 43.501,31.571 43.487,31.571 C43.324,31.743 43.105,31.854 42.878,31.867 C42.744,32.020 42.655,32.215 42.655,32.434 C42.655,32.915 43.046,33.306 43.526,33.306 ZM31.581,33.306 C32.061,33.306 32.451,32.915 32.451,32.434 C32.451,32.219 32.364,32.028 32.235,31.876 L30.926,31.876 C30.796,32.028 30.709,32.219 30.709,32.434 C30.709,32.915 31.100,33.306 31.581,33.306 Z" class="cls-2"/>
  </g>
</svg>
